<svg xmlns="http://www.w3.org/2000/svg" viewBox="0 0 560 180" width="560" height="180" role="img" aria-label="Roost logo">
  <defs>
    <filter id="sh" x="-40%" y="-40%" width="180%" height="180%">
      <feDropShadow dx="0" dy="5" stdDeviation="6" flood-color="#7A4A2E" flood-opacity="0.22"/>
    </filter>
  </defs>
  <g filter="url(#sh)" transform="translate(40,30) scale(1.2)">
    <path d="M50,4 L8,46 L50,46 Z" fill="#F2A98C" stroke="#2A251F" stroke-opacity="0.12" stroke-width="1.4" stroke-linejoin="round"/>
    <path d="M50,4 L92,46 L50,46 Z" fill="#E07856" stroke="#2A251F" stroke-opacity="0.12" stroke-width="1.4" stroke-linejoin="round"/>
    <path d="M8,46 L50,96 L50,46 Z" fill="#2FB3A3" stroke="#2A251F" stroke-opacity="0.12" stroke-width="1.4" stroke-linejoin="round"/>
    <path d="M92,46 L50,96 L50,46 Z" fill="#1E8C7F" stroke="#2A251F" stroke-opacity="0.12" stroke-width="1.4" stroke-linejoin="round"/>
    <path d="M84,11 C84.5,16 85,16.5 90,18 C85,19.5 84.5,20 84,25 C83.5,20 83,19.5 78,18 C83,16.5 83.5,16 84,11 Z" fill="#FFFFFF" fill-opacity="0.92"/>
  </g>
  <text x="190" y="118" font-family="'Bricolage Grotesque','Trebuchet MS','Inter',sans-serif" font-size="80" font-weight="800" letter-spacing="-2" fill="#2A251F">Roost</text>
</svg>
